<mxfile host="app.diagrams.net" modified="2023-02-15T07:19:39.936Z" agent="5.0 (Windows NT 10.0; Win64; x64) AppleWebKit/537.36 (KHTML, like Gecko) Chrome/109.0.0.0 Safari/537.36" etag="kPeVobgHp-H1AGUuX9VN" version="20.8.20" type="github">
  <diagram name="第 1 页" id="uNDqMS3CdsV-ZGY2vKpr">
    <mxGraphModel dx="2261" dy="764" grid="1" gridSize="10" guides="1" tooltips="1" connect="1" arrows="1" fold="1" page="1" pageScale="1" pageWidth="827" pageHeight="1169" math="0" shadow="0">
      <root>
        <mxCell id="0" />
        <mxCell id="1" parent="0" />
        <mxCell id="pe__YzztToad4cx739Ga-3" value="" style="edgeStyle=orthogonalEdgeStyle;rounded=0;orthogonalLoop=1;jettySize=auto;html=1;" edge="1" parent="1" source="pe__YzztToad4cx739Ga-1" target="pe__YzztToad4cx739Ga-2">
          <mxGeometry relative="1" as="geometry" />
        </mxCell>
        <mxCell id="pe__YzztToad4cx739Ga-1" value="" style="ellipse;whiteSpace=wrap;html=1;aspect=fixed;" vertex="1" parent="1">
          <mxGeometry x="394" y="160" width="40" height="40" as="geometry" />
        </mxCell>
        <mxCell id="pe__YzztToad4cx739Ga-5" value="" style="edgeStyle=orthogonalEdgeStyle;rounded=0;orthogonalLoop=1;jettySize=auto;html=1;" edge="1" parent="1" source="pe__YzztToad4cx739Ga-2" target="pe__YzztToad4cx739Ga-4">
          <mxGeometry relative="1" as="geometry" />
        </mxCell>
        <mxCell id="pe__YzztToad4cx739Ga-2" value="New" style="rounded=1;whiteSpace=wrap;html=1;" vertex="1" parent="1">
          <mxGeometry x="354" y="250" width="120" height="60" as="geometry" />
        </mxCell>
        <mxCell id="pe__YzztToad4cx739Ga-16" style="edgeStyle=orthogonalEdgeStyle;rounded=0;orthogonalLoop=1;jettySize=auto;html=1;exitX=0;exitY=0;exitDx=0;exitDy=0;entryX=1;entryY=0.5;entryDx=0;entryDy=0;" edge="1" parent="1" source="pe__YzztToad4cx739Ga-4" target="pe__YzztToad4cx739Ga-11">
          <mxGeometry relative="1" as="geometry" />
        </mxCell>
        <mxCell id="pe__YzztToad4cx739Ga-21" style="edgeStyle=orthogonalEdgeStyle;rounded=0;orthogonalLoop=1;jettySize=auto;html=1;exitX=1;exitY=0;exitDx=0;exitDy=0;" edge="1" parent="1" source="pe__YzztToad4cx739Ga-4" target="pe__YzztToad4cx739Ga-20">
          <mxGeometry relative="1" as="geometry" />
        </mxCell>
        <mxCell id="pe__YzztToad4cx739Ga-28" style="edgeStyle=orthogonalEdgeStyle;rounded=0;orthogonalLoop=1;jettySize=auto;html=1;exitX=0;exitY=0.75;exitDx=0;exitDy=0;entryX=0.5;entryY=0;entryDx=0;entryDy=0;" edge="1" parent="1" source="pe__YzztToad4cx739Ga-4" target="pe__YzztToad4cx739Ga-25">
          <mxGeometry relative="1" as="geometry" />
        </mxCell>
        <mxCell id="pe__YzztToad4cx739Ga-32" style="edgeStyle=orthogonalEdgeStyle;rounded=0;orthogonalLoop=1;jettySize=auto;html=1;entryX=0.5;entryY=0;entryDx=0;entryDy=0;" edge="1" parent="1" source="pe__YzztToad4cx739Ga-4" target="pe__YzztToad4cx739Ga-31">
          <mxGeometry relative="1" as="geometry" />
        </mxCell>
        <mxCell id="pe__YzztToad4cx739Ga-33" value="执行完毕" style="edgeLabel;html=1;align=center;verticalAlign=middle;resizable=0;points=[];" vertex="1" connectable="0" parent="pe__YzztToad4cx739Ga-32">
          <mxGeometry x="-0.2" y="1" relative="1" as="geometry">
            <mxPoint as="offset" />
          </mxGeometry>
        </mxCell>
        <mxCell id="pe__YzztToad4cx739Ga-4" value="" style="rounded=1;whiteSpace=wrap;html=1;" vertex="1" parent="1">
          <mxGeometry x="311" y="350" width="206" height="270" as="geometry" />
        </mxCell>
        <mxCell id="pe__YzztToad4cx739Ga-6" value="Running" style="rounded=1;whiteSpace=wrap;html=1;" vertex="1" parent="1">
          <mxGeometry x="354" y="410" width="120" height="60" as="geometry" />
        </mxCell>
        <mxCell id="pe__YzztToad4cx739Ga-7" value="Runnable" style="text;html=1;strokeColor=none;fillColor=none;align=center;verticalAlign=middle;whiteSpace=wrap;rounded=0;" vertex="1" parent="1">
          <mxGeometry x="384" y="370" width="60" height="30" as="geometry" />
        </mxCell>
        <mxCell id="pe__YzztToad4cx739Ga-8" value="Ready" style="rounded=1;whiteSpace=wrap;html=1;" vertex="1" parent="1">
          <mxGeometry x="354" y="520" width="120" height="60" as="geometry" />
        </mxCell>
        <mxCell id="pe__YzztToad4cx739Ga-9" value="" style="endArrow=classic;html=1;rounded=0;entryX=0.25;entryY=1;entryDx=0;entryDy=0;exitX=0.25;exitY=0;exitDx=0;exitDy=0;" edge="1" parent="1" source="pe__YzztToad4cx739Ga-8" target="pe__YzztToad4cx739Ga-6">
          <mxGeometry width="50" height="50" relative="1" as="geometry">
            <mxPoint x="384" y="510" as="sourcePoint" />
            <mxPoint x="440" y="510" as="targetPoint" />
          </mxGeometry>
        </mxCell>
        <mxCell id="pe__YzztToad4cx739Ga-10" value="" style="endArrow=classic;html=1;rounded=0;exitX=0.7;exitY=0.983;exitDx=0;exitDy=0;exitPerimeter=0;" edge="1" parent="1" source="pe__YzztToad4cx739Ga-6">
          <mxGeometry width="50" height="50" relative="1" as="geometry">
            <mxPoint x="440" y="520" as="sourcePoint" />
            <mxPoint x="440" y="520" as="targetPoint" />
          </mxGeometry>
        </mxCell>
        <mxCell id="pe__YzztToad4cx739Ga-17" style="edgeStyle=orthogonalEdgeStyle;rounded=0;orthogonalLoop=1;jettySize=auto;html=1;exitX=0.5;exitY=1;exitDx=0;exitDy=0;entryX=0;entryY=0.25;entryDx=0;entryDy=0;" edge="1" parent="1" source="pe__YzztToad4cx739Ga-11" target="pe__YzztToad4cx739Ga-4">
          <mxGeometry relative="1" as="geometry" />
        </mxCell>
        <mxCell id="pe__YzztToad4cx739Ga-11" value="Waiting" style="rounded=1;whiteSpace=wrap;html=1;" vertex="1" parent="1">
          <mxGeometry x="-70" y="270" width="120" height="100" as="geometry" />
        </mxCell>
        <mxCell id="pe__YzztToad4cx739Ga-18" value="1. Object.wait()&lt;br&gt;2. Thread.join()&lt;br&gt;3. LockSupport.park()" style="text;html=1;strokeColor=none;fillColor=none;align=center;verticalAlign=middle;whiteSpace=wrap;rounded=0;" vertex="1" parent="1">
          <mxGeometry x="100" y="240" width="150" height="90" as="geometry" />
        </mxCell>
        <mxCell id="pe__YzztToad4cx739Ga-19" value="1. Object.notify()&lt;br&gt;2. Object.notifyAll()&lt;br&gt;3. join线程执行完&lt;br&gt;4. LockSupport.unpark()" style="text;html=1;strokeColor=none;fillColor=none;align=center;verticalAlign=middle;whiteSpace=wrap;rounded=0;" vertex="1" parent="1">
          <mxGeometry x="70" y="405" width="170" height="105" as="geometry" />
        </mxCell>
        <mxCell id="pe__YzztToad4cx739Ga-22" style="edgeStyle=orthogonalEdgeStyle;rounded=0;orthogonalLoop=1;jettySize=auto;html=1;exitX=0.5;exitY=1;exitDx=0;exitDy=0;entryX=1;entryY=0.25;entryDx=0;entryDy=0;" edge="1" parent="1" source="pe__YzztToad4cx739Ga-20" target="pe__YzztToad4cx739Ga-4">
          <mxGeometry relative="1" as="geometry" />
        </mxCell>
        <mxCell id="pe__YzztToad4cx739Ga-20" value="Time&lt;br&gt;Waiting" style="rounded=1;whiteSpace=wrap;html=1;" vertex="1" parent="1">
          <mxGeometry x="827" y="270" width="120" height="100" as="geometry" />
        </mxCell>
        <mxCell id="pe__YzztToad4cx739Ga-23" value="1. Object.wait(long)&lt;br&gt;2. Thread.join(long)&lt;br&gt;3. Thread.sleep(long)&lt;br&gt;4. LockSupport.parkNanos(long)&lt;br&gt;5. LockSupport.parkUnit(long)" style="text;html=1;strokeColor=none;fillColor=none;align=center;verticalAlign=middle;whiteSpace=wrap;rounded=0;" vertex="1" parent="1">
          <mxGeometry x="590" y="220" width="190" height="100" as="geometry" />
        </mxCell>
        <mxCell id="pe__YzztToad4cx739Ga-24" value="1. Object.notify()&lt;br&gt;2. Object.notifyAll()&lt;br&gt;3. LockSupport.unpark(Thread)&lt;br&gt;4.&amp;nbsp; join线程执行完&lt;br&gt;5. 超时时间到" style="text;html=1;strokeColor=none;fillColor=none;align=center;verticalAlign=middle;whiteSpace=wrap;rounded=0;" vertex="1" parent="1">
          <mxGeometry x="560" y="420" width="250" height="90" as="geometry" />
        </mxCell>
        <mxCell id="pe__YzztToad4cx739Ga-26" style="edgeStyle=orthogonalEdgeStyle;rounded=0;orthogonalLoop=1;jettySize=auto;html=1;entryX=0;entryY=1;entryDx=0;entryDy=0;" edge="1" parent="1" source="pe__YzztToad4cx739Ga-25" target="pe__YzztToad4cx739Ga-4">
          <mxGeometry relative="1" as="geometry" />
        </mxCell>
        <mxCell id="pe__YzztToad4cx739Ga-25" value="Blocked" style="rounded=1;whiteSpace=wrap;html=1;" vertex="1" parent="1">
          <mxGeometry x="-70" y="660" width="120" height="100" as="geometry" />
        </mxCell>
        <mxCell id="pe__YzztToad4cx739Ga-29" value="1. wait被notify后未获取锁失败&lt;br&gt;2. synchronized 获取锁失败" style="text;html=1;align=center;verticalAlign=middle;resizable=0;points=[];autosize=1;strokeColor=none;fillColor=none;" vertex="1" parent="1">
          <mxGeometry x="50" y="565" width="180" height="40" as="geometry" />
        </mxCell>
        <mxCell id="pe__YzztToad4cx739Ga-30" value="获取锁成功" style="text;html=1;align=center;verticalAlign=middle;resizable=0;points=[];autosize=1;strokeColor=none;fillColor=none;" vertex="1" parent="1">
          <mxGeometry x="130" y="675" width="80" height="30" as="geometry" />
        </mxCell>
        <mxCell id="pe__YzztToad4cx739Ga-31" value="Terminiated" style="rounded=1;whiteSpace=wrap;html=1;" vertex="1" parent="1">
          <mxGeometry x="354" y="730" width="120" height="100" as="geometry" />
        </mxCell>
      </root>
    </mxGraphModel>
  </diagram>
</mxfile>
